<svg xmlns="http://www.w3.org/2000/svg" xmlns:xlink="http://www.w3.org/1999/xlink" width="500" zoomAndPan="magnify" viewBox="0 0 375 112.499997" height="150" preserveAspectRatio="xMidYMid meet" version="1.0"><defs><g/><clipPath id="6e84caaad9"><path d="M 354.40625 11.199219 L 363.367188 11.199219 L 363.367188 15.679688 L 354.40625 15.679688 Z M 354.40625 11.199219 " clip-rule="nonzero"/></clipPath></defs><g fill="#f4f6fc" fill-opacity="1"><g transform="translate(18.353988, 82.94206)"><g><path d="M 28.53125 -46.453125 C 33.019531 -46.453125 37.03125 -45.457031 40.5625 -43.46875 C 44.09375 -41.476562 46.867188 -38.703125 48.890625 -35.140625 C 50.910156 -31.578125 51.921875 -27.519531 51.921875 -22.96875 L 51.921875 -5.8125 C 51.921875 -1.320312 50.925781 2.742188 48.9375 6.390625 C 46.945312 10.035156 44.179688 12.910156 40.640625 15.015625 C 37.109375 17.117188 33.128906 18.171875 28.703125 18.171875 C 24.378906 18.171875 20.535156 17.359375 17.171875 15.734375 C 13.804688 14.109375 10.972656 11.835938 8.671875 8.921875 C 8.160156 8.359375 7.90625 7.710938 7.90625 6.984375 C 7.90625 6.140625 8.300781 5.410156 9.09375 4.796875 C 9.65625 4.398438 10.269531 4.203125 10.9375 4.203125 C 11.445312 4.203125 11.953125 4.328125 12.453125 4.578125 C 12.960938 4.835938 13.359375 5.160156 13.640625 5.546875 C 15.316406 7.679688 17.445312 9.335938 20.03125 10.515625 C 22.613281 11.691406 25.53125 12.28125 28.78125 12.28125 C 31.925781 12.28125 34.773438 11.507812 37.328125 9.96875 C 39.878906 8.425781 41.882812 6.265625 43.34375 3.484375 C 44.800781 0.710938 45.53125 -2.46875 45.53125 -6.0625 L 45.53125 -9.84375 C 43.84375 -6.644531 41.457031 -4.132812 38.375 -2.3125 C 35.289062 -0.488281 31.785156 0.421875 27.859375 0.421875 C 23.484375 0.421875 19.566406 -0.570312 16.109375 -2.5625 C 12.660156 -4.550781 9.96875 -7.328125 8.03125 -10.890625 C 6.101562 -14.453125 5.140625 -18.476562 5.140625 -22.96875 C 5.140625 -27.519531 6.144531 -31.578125 8.15625 -35.140625 C 10.175781 -38.703125 12.96875 -41.476562 16.53125 -43.46875 C 20.09375 -45.457031 24.09375 -46.453125 28.53125 -46.453125 Z M 28.53125 -5.46875 C 31.78125 -5.46875 34.695312 -6.210938 37.28125 -7.703125 C 39.863281 -9.191406 41.882812 -11.265625 43.34375 -13.921875 C 44.800781 -16.585938 45.53125 -19.601562 45.53125 -22.96875 C 45.53125 -26.34375 44.800781 -29.359375 43.34375 -32.015625 C 41.882812 -34.679688 39.863281 -36.769531 37.28125 -38.28125 C 34.695312 -39.800781 31.78125 -40.5625 28.53125 -40.5625 C 25.21875 -40.5625 22.269531 -39.800781 19.6875 -38.28125 C 17.113281 -36.769531 15.09375 -34.679688 13.625 -32.015625 C 12.164062 -29.359375 11.4375 -26.34375 11.4375 -22.96875 C 11.4375 -19.601562 12.164062 -16.585938 13.625 -13.921875 C 15.09375 -11.265625 17.113281 -9.191406 19.6875 -7.703125 C 22.269531 -6.210938 25.21875 -5.46875 28.53125 -5.46875 Z M 28.53125 -5.46875 "/></g></g></g><g fill="#f4f6fc" fill-opacity="1"><g transform="translate(71.116608, 82.94206)"><g><path d="M 28.53125 -46.453125 C 32.90625 -46.453125 36.875 -45.425781 40.4375 -43.375 C 44 -41.332031 46.800781 -38.515625 48.84375 -34.921875 C 50.894531 -31.328125 51.921875 -27.34375 51.921875 -22.96875 L 51.921875 -3.203125 C 51.921875 -2.296875 51.613281 -1.535156 51 -0.921875 C 50.382812 -0.304688 49.597656 0 48.640625 0 C 47.691406 0 46.90625 -0.289062 46.28125 -0.875 C 45.664062 -1.46875 45.359375 -2.242188 45.359375 -3.203125 L 45.359375 -8.25 C 43.398438 -5.550781 40.90625 -3.429688 37.875 -1.890625 C 34.84375 -0.347656 31.503906 0.421875 27.859375 0.421875 C 23.585938 0.421875 19.726562 -0.597656 16.28125 -2.640625 C 12.832031 -4.691406 10.113281 -7.5 8.125 -11.0625 C 6.132812 -14.625 5.140625 -18.59375 5.140625 -22.96875 C 5.140625 -27.34375 6.160156 -31.328125 8.203125 -34.921875 C 10.253906 -38.515625 13.0625 -41.332031 16.625 -43.375 C 20.1875 -45.425781 24.15625 -46.453125 28.53125 -46.453125 Z M 28.53125 -5.46875 C 31.726562 -5.46875 34.613281 -6.222656 37.1875 -7.734375 C 39.769531 -9.253906 41.804688 -11.347656 43.296875 -14.015625 C 44.785156 -16.679688 45.53125 -19.664062 45.53125 -22.96875 C 45.53125 -26.28125 44.785156 -29.269531 43.296875 -31.9375 C 41.804688 -34.601562 39.769531 -36.707031 37.1875 -38.25 C 34.613281 -39.789062 31.726562 -40.5625 28.53125 -40.5625 C 25.332031 -40.5625 22.425781 -39.789062 19.8125 -38.25 C 17.207031 -36.707031 15.160156 -34.601562 13.671875 -31.9375 C 12.179688 -29.269531 11.4375 -26.28125 11.4375 -22.96875 C 11.4375 -19.664062 12.179688 -16.679688 13.671875 -14.015625 C 15.160156 -11.347656 17.207031 -9.253906 19.8125 -7.734375 C 22.425781 -6.222656 25.332031 -5.46875 28.53125 -5.46875 Z M 28.53125 -5.46875 "/></g></g></g><g fill="#f4f6fc" fill-opacity="1"><g transform="translate(123.879228, 82.94206)"><g><path d="M 27.859375 -6.484375 C 28.753906 -6.484375 29.484375 -6.171875 30.046875 -5.546875 C 30.609375 -4.929688 30.890625 -4.148438 30.890625 -3.203125 C 30.890625 -2.296875 30.550781 -1.535156 29.875 -0.921875 C 29.195312 -0.304688 28.351562 0 27.34375 0 L 25.578125 0 C 22.609375 0 19.941406 -0.710938 17.578125 -2.140625 C 15.222656 -3.578125 13.382812 -5.515625 12.0625 -7.953125 C 10.75 -10.390625 10.09375 -13.148438 10.09375 -16.234375 L 10.09375 -38.71875 L 4.625 -38.71875 C 3.726562 -38.71875 3.015625 -38.984375 2.484375 -39.515625 C 1.953125 -40.046875 1.6875 -40.703125 1.6875 -41.484375 C 1.6875 -42.328125 1.953125 -43.015625 2.484375 -43.546875 C 3.015625 -44.078125 3.726562 -44.34375 4.625 -44.34375 L 10.09375 -44.34375 L 10.09375 -57.390625 C 10.09375 -58.347656 10.382812 -59.132812 10.96875 -59.75 C 11.5625 -60.363281 12.335938 -60.671875 13.296875 -60.671875 C 14.253906 -60.671875 15.039062 -60.363281 15.65625 -59.75 C 16.269531 -59.132812 16.578125 -58.347656 16.578125 -57.390625 L 16.578125 -44.34375 L 26.09375 -44.34375 C 26.988281 -44.34375 27.703125 -44.078125 28.234375 -43.546875 C 28.765625 -43.015625 29.03125 -42.328125 29.03125 -41.484375 C 29.03125 -40.703125 28.765625 -40.046875 28.234375 -39.515625 C 27.703125 -38.984375 26.988281 -38.71875 26.09375 -38.71875 L 16.578125 -38.71875 L 16.578125 -16.234375 C 16.578125 -13.378906 17.414062 -11.039062 19.09375 -9.21875 C 20.78125 -7.394531 22.941406 -6.484375 25.578125 -6.484375 Z M 27.859375 -6.484375 "/></g></g></g><g fill="#f4f6fc" fill-opacity="1"><g transform="translate(153.500253, 82.94206)"><g><path d="M 27.1875 -46.453125 C 31.332031 -46.453125 35.003906 -45.484375 38.203125 -43.546875 C 41.398438 -41.609375 43.882812 -38.925781 45.65625 -35.5 C 47.425781 -32.082031 48.3125 -28.1875 48.3125 -23.8125 C 48.3125 -22.914062 48.03125 -22.203125 47.46875 -21.671875 C 46.90625 -21.140625 46.175781 -20.875 45.28125 -20.875 L 11.28125 -20.875 C 11.726562 -16.269531 13.519531 -12.535156 16.65625 -9.671875 C 19.800781 -6.816406 23.726562 -5.390625 28.4375 -5.390625 C 30.457031 -5.390625 32.492188 -5.738281 34.546875 -6.4375 C 36.597656 -7.132812 38.238281 -8.019531 39.46875 -9.09375 C 40.195312 -9.65625 40.953125 -9.9375 41.734375 -9.9375 C 42.359375 -9.9375 42.976562 -9.707031 43.59375 -9.25 C 44.320312 -8.582031 44.6875 -7.828125 44.6875 -6.984375 C 44.6875 -6.253906 44.378906 -5.609375 43.765625 -5.046875 C 41.910156 -3.472656 39.550781 -2.164062 36.6875 -1.125 C 33.832031 -0.09375 31.082031 0.421875 28.4375 0.421875 C 23.957031 0.421875 19.945312 -0.570312 16.40625 -2.5625 C 12.875 -4.550781 10.113281 -7.328125 8.125 -10.890625 C 6.132812 -14.453125 5.140625 -18.476562 5.140625 -22.96875 C 5.140625 -27.519531 6.078125 -31.578125 7.953125 -35.140625 C 9.828125 -38.703125 12.429688 -41.476562 15.765625 -43.46875 C 19.109375 -45.457031 22.914062 -46.453125 27.1875 -46.453125 Z M 27.1875 -40.640625 C 22.914062 -40.640625 19.378906 -39.320312 16.578125 -36.6875 C 13.773438 -34.050781 12.0625 -30.570312 11.4375 -26.25 L 42.25 -26.25 C 41.800781 -30.570312 40.226562 -34.050781 37.53125 -36.6875 C 34.84375 -39.320312 31.394531 -40.640625 27.1875 -40.640625 Z M 27.1875 -40.640625 "/></g></g></g><g fill="#f4f6fc" fill-opacity="1"><g transform="translate(200.961335, 82.94206)"><g><path d="M 28.109375 0.421875 C 23.734375 0.421875 19.804688 -0.597656 16.328125 -2.640625 C 12.847656 -4.691406 10.113281 -7.5 8.125 -11.0625 C 6.132812 -14.625 5.140625 -18.59375 5.140625 -22.96875 C 5.140625 -27.457031 6.09375 -31.484375 8 -35.046875 C 9.90625 -38.609375 12.539062 -41.398438 15.90625 -43.421875 C 19.269531 -45.441406 23.054688 -46.453125 27.265625 -46.453125 C 34.273438 -46.453125 39.96875 -43.757812 44.34375 -38.375 C 44.800781 -37.875 45.03125 -37.285156 45.03125 -36.609375 C 45.03125 -35.710938 44.550781 -34.925781 43.59375 -34.25 C 43.082031 -33.914062 42.550781 -33.75 42 -33.75 C 41.15625 -33.75 40.335938 -34.171875 39.546875 -35.015625 C 37.867188 -36.859375 36.019531 -38.242188 34 -39.171875 C 31.976562 -40.097656 29.734375 -40.5625 27.265625 -40.5625 C 24.179688 -40.5625 21.429688 -39.816406 19.015625 -38.328125 C 16.609375 -36.847656 14.742188 -34.757812 13.421875 -32.0625 C 12.097656 -29.375 11.4375 -26.34375 11.4375 -22.96875 C 11.4375 -19.664062 12.140625 -16.679688 13.546875 -14.015625 C 14.953125 -11.347656 16.914062 -9.253906 19.4375 -7.734375 C 21.96875 -6.222656 24.859375 -5.46875 28.109375 -5.46875 C 32.597656 -5.46875 36.21875 -6.675781 38.96875 -9.09375 C 39.695312 -9.707031 40.453125 -10.015625 41.234375 -10.015625 C 41.910156 -10.015625 42.53125 -9.789062 43.09375 -9.34375 C 43.875 -8.664062 44.265625 -7.90625 44.265625 -7.0625 C 44.265625 -6.332031 43.984375 -5.71875 43.421875 -5.21875 C 39.378906 -1.457031 34.273438 0.421875 28.109375 0.421875 Z M 28.109375 0.421875 "/></g></g></g><g fill="#f4f6fc" fill-opacity="1"><g transform="translate(246.907707, 82.94206)"><g><path d="M 28.53125 0.421875 C 24.09375 0.421875 20.09375 -0.585938 16.53125 -2.609375 C 12.96875 -4.628906 10.175781 -7.421875 8.15625 -10.984375 C 6.144531 -14.546875 5.140625 -18.539062 5.140625 -22.96875 C 5.140625 -27.40625 6.144531 -31.414062 8.15625 -35 C 10.175781 -38.59375 12.96875 -41.398438 16.53125 -43.421875 C 20.09375 -45.441406 24.09375 -46.453125 28.53125 -46.453125 C 32.957031 -46.453125 36.9375 -45.441406 40.46875 -43.421875 C 44.007812 -41.398438 46.800781 -38.59375 48.84375 -35 C 50.894531 -31.414062 51.921875 -27.40625 51.921875 -22.96875 C 51.921875 -18.539062 50.910156 -14.546875 48.890625 -10.984375 C 46.867188 -7.421875 44.078125 -4.628906 40.515625 -2.609375 C 36.953125 -0.585938 32.957031 0.421875 28.53125 0.421875 Z M 28.53125 -5.46875 C 31.78125 -5.46875 34.695312 -6.222656 37.28125 -7.734375 C 39.863281 -9.253906 41.882812 -11.347656 43.34375 -14.015625 C 44.800781 -16.679688 45.53125 -19.664062 45.53125 -22.96875 C 45.53125 -26.34375 44.800781 -29.359375 43.34375 -32.015625 C 41.882812 -34.679688 39.863281 -36.769531 37.28125 -38.28125 C 34.695312 -39.800781 31.78125 -40.5625 28.53125 -40.5625 C 25.332031 -40.5625 22.425781 -39.800781 19.8125 -38.28125 C 17.207031 -36.769531 15.160156 -34.679688 13.671875 -32.015625 C 12.179688 -29.359375 11.4375 -26.34375 11.4375 -22.96875 C 11.4375 -19.664062 12.179688 -16.679688 13.671875 -14.015625 C 15.160156 -11.347656 17.207031 -9.253906 19.8125 -7.734375 C 22.425781 -6.222656 25.332031 -5.46875 28.53125 -5.46875 Z M 28.53125 -5.46875 "/></g></g></g><g fill="#f4f6fc" fill-opacity="1"><g transform="translate(299.670332, 82.94206)"><g><path d="M 29.375 -46.53125 C 33.351562 -46.53125 36.925781 -45.6875 40.09375 -44 C 43.269531 -42.320312 45.753906 -39.867188 47.546875 -36.640625 C 49.335938 -33.421875 50.234375 -29.566406 50.234375 -25.078125 L 50.234375 -3.203125 C 50.234375 -2.296875 49.925781 -1.535156 49.3125 -0.921875 C 48.695312 -0.304688 47.941406 0 47.046875 0 C 46.085938 0 45.300781 -0.304688 44.6875 -0.921875 C 44.070312 -1.535156 43.765625 -2.296875 43.765625 -3.203125 L 43.765625 -25.078125 C 43.765625 -30.066406 42.375 -33.863281 39.59375 -36.46875 C 36.820312 -39.082031 33.191406 -40.390625 28.703125 -40.390625 C 25.953125 -40.390625 23.46875 -39.859375 21.25 -38.796875 C 19.03125 -37.734375 17.273438 -36.257812 15.984375 -34.375 C 14.691406 -32.5 14.046875 -30.410156 14.046875 -28.109375 L 14.046875 -3.203125 C 14.046875 -2.242188 13.75 -1.46875 13.15625 -0.875 C 12.570312 -0.289062 11.804688 0 10.859375 0 C 9.898438 0 9.113281 -0.289062 8.5 -0.875 C 7.882812 -1.46875 7.578125 -2.242188 7.578125 -3.203125 L 7.578125 -42.75 C 7.578125 -43.707031 7.882812 -44.492188 8.5 -45.109375 C 9.113281 -45.722656 9.898438 -46.03125 10.859375 -46.03125 C 11.804688 -46.03125 12.570312 -45.722656 13.15625 -45.109375 C 13.75 -44.492188 14.046875 -43.707031 14.046875 -42.75 L 14.046875 -39.890625 C 15.898438 -41.960938 18.144531 -43.585938 20.78125 -44.765625 C 23.414062 -45.941406 26.28125 -46.53125 29.375 -46.53125 Z M 29.375 -46.53125 "/></g></g></g><g clip-path="url(#6e84caaad9)"><path fill="#f4f6fc" d="M 354.386719 11.53125 C 354.386719 11.449219 354.417969 11.382812 354.476562 11.328125 C 354.539062 11.273438 354.613281 11.242188 354.699219 11.242188 L 358.449219 11.242188 C 358.535156 11.242188 358.609375 11.273438 358.671875 11.328125 C 358.730469 11.382812 358.761719 11.449219 358.761719 11.53125 C 358.761719 11.609375 358.730469 11.675781 358.671875 11.734375 C 358.609375 11.789062 358.535156 11.816406 358.449219 11.816406 L 356.886719 11.816406 L 356.886719 15.351562 C 356.886719 15.429688 356.855469 15.496094 356.796875 15.554688 C 356.734375 15.609375 356.660156 15.636719 356.574219 15.636719 C 356.488281 15.636719 356.414062 15.609375 356.351562 15.554688 C 356.292969 15.496094 356.261719 15.429688 356.261719 15.351562 L 356.261719 11.816406 L 354.699219 11.816406 C 354.613281 11.816406 354.539062 11.789062 354.476562 11.734375 C 354.417969 11.675781 354.386719 11.609375 354.386719 11.53125 Z M 361.367188 12.980469 L 359.945312 11.351562 C 359.851562 11.246094 359.734375 11.214844 359.597656 11.257812 C 359.457031 11.304688 359.386719 11.394531 359.386719 11.53125 L 359.386719 15.351562 C 359.386719 15.429688 359.417969 15.496094 359.480469 15.554688 C 359.539062 15.609375 359.613281 15.636719 359.699219 15.636719 C 359.785156 15.636719 359.859375 15.609375 359.921875 15.554688 C 359.980469 15.496094 360.011719 15.429688 360.011719 15.351562 L 360.011719 12.347656 L 361.121094 13.621094 C 361.1875 13.6875 361.269531 13.722656 361.367188 13.722656 C 361.464844 13.722656 361.546875 13.6875 361.609375 13.621094 L 362.722656 12.347656 L 362.722656 15.351562 C 362.722656 15.429688 362.75 15.496094 362.8125 15.554688 C 362.875 15.609375 362.949219 15.636719 363.035156 15.636719 C 363.121094 15.636719 363.195312 15.609375 363.253906 15.554688 C 363.316406 15.496094 363.347656 15.429688 363.347656 15.351562 L 363.347656 11.53125 C 363.347656 11.394531 363.277344 11.304688 363.136719 11.257812 C 362.996094 11.214844 362.882812 11.246094 362.789062 11.351562 Z M 361.367188 12.980469 " fill-opacity="1" fill-rule="nonzero"/></g></svg>